<svg xmlns="http://www.w3.org/2000/svg" viewBox="0 0 1200 630">
  <defs>
    <linearGradient id="bg" x1="0" y1="0" x2="0" y2="1">
      <stop offset="0" stop-color="#FBF7F0"/>
      <stop offset="0.6" stop-color="#F6E8E3"/>
      <stop offset="1" stop-color="#EFD9D6"/>
    </linearGradient>
  </defs>

  <rect width="1200" height="630" fill="url(#bg)"/>

  <!-- arch -->
  <path d="M600 150 a300 300 0 0 1 300 300 v180 h-600 v-180 a300 300 0 0 1 300-300 z" fill="#FFFFFF" opacity="0.4"/>
  <path d="M600 172 a278 278 0 0 1 278 278 v160 h-556 v-160 a278 278 0 0 1 278-278 z" fill="none" stroke="#AC6C71" stroke-width="2" opacity="0.55"/>

  <!-- ornament -->
  <g stroke="#B99D6C" stroke-width="2" opacity="0.85" fill="none">
    <path d="M430 268 H560"/>
    <path d="M640 268 H770"/>
    <path d="M575 268 h10 M615 268 h10" stroke-width="1.2" opacity="0.6"/>
  </g>
  <rect x="596" y="264" width="8" height="8" fill="#B99D6C" opacity="0.9" transform="rotate(45 600 268)"/>

  <!-- names -->
  <text x="600" y="405" text-anchor="middle" font-family="Georgia, 'Times New Roman', serif" font-size="82" fill="#43372E" opacity="0.92" font-weight="500" letter-spacing="3">AMEEN AHLAM &amp; HANOON</text>

  <!-- date -->
  <text x="600" y="476" text-anchor="middle" font-family="Georgia, 'Times New Roman', serif" font-size="34" fill="#AC6C71" opacity="0.9" letter-spacing="8">NIKAH INVITATION</text>
  <text x="600" y="530" text-anchor="middle" font-family="Georgia, 'Times New Roman', serif" font-size="28" fill="#7B6A5A" opacity="0.95" letter-spacing="6">SUNDAY · 27 SEPTEMBER 2026</text>
</svg>